<?xml version="1.0" standalone="no"?>
<!DOCTYPE svg PUBLIC "-//W3C//DTD SVG 20010904//EN"
 "http://www.w3.org/TR/2001/REC-SVG-20010904/DTD/svg10.dtd">
<svg version="1.0" xmlns="http://www.w3.org/2000/svg"
 width="626.000000pt" height="465.000000pt" viewBox="0 0 626.000000 465.000000"
 preserveAspectRatio="xMidYMid meet">

<g transform="translate(0.000000,465.000000) scale(0.100000,-0.100000)"
fill="#000000" stroke="none">
<path d="M2985 4554 c-93 -36 -228 -87 -300 -114 -71 -27 -202 -77 -290 -110
-88 -33 -218 -83 -290 -110 -71 -27 -238 -90 -370 -140 -132 -51 -262 -100
-290 -110 -27 -10 -158 -59 -290 -110 -132 -50 -319 -120 -415 -157 -96 -36
-227 -85 -290 -110 -63 -25 -144 -56 -180 -68 -100 -36 -253 -95 -258 -99 -2
-2 117 -43 265 -91 408 -132 594 -192 753 -245 80 -26 267 -87 415 -135 149
-47 344 -111 435 -140 91 -30 244 -79 340 -110 96 -31 207 -67 245 -80 39 -13
198 -65 355 -115 157 -50 296 -96 309 -101 24 -10 0 -18 1511 481 212 70 661
218 998 329 338 112 612 204 610 206 -2 3 -87 36 -189 75 -101 39 -211 82
-244 95 -33 13 -179 69 -325 125 -146 56 -293 112 -328 126 -34 13 -90 34
-125 48 -34 13 -120 46 -192 74 -71 28 -173 67 -225 87 -95 36 -230 88 -390
150 -47 18 -193 74 -325 124 -132 51 -256 98 -275 106 -19 8 -118 46 -220 85
-102 39 -200 77 -218 85 -18 8 -34 15 -35 14 -1 0 -78 -29 -172 -65z"/>
<path d="M5350 3038 c-36 -11 -68 -25 -72 -32 -5 -6 -8 -295 -8 -643 l1 -632
-39 -39 c-71 -71 -73 -176 -5 -254 14 -16 13 -20 -11 -48 -14 -18 -29 -44 -34
-58 -4 -15 -7 -315 -7 -667 l0 -640 180 0 180 0 3 605 c2 333 0 629 -3 658 -5
38 -16 64 -40 96 -25 33 -30 46 -20 50 24 9 55 83 55 131 0 56 -29 116 -70
145 l-30 21 0 665 c0 365 -3 664 -7 663 -5 0 -37 -10 -73 -21z"/>
<path d="M1280 2477 l0 -434 143 -11 c342 -28 659 -104 1007 -239 186 -73 504
-225 626 -301 l82 -50 108 65 c108 64 466 244 514 258 14 4 43 16 65 26 80 37
336 120 475 154 179 43 397 76 553 82 l147 6 0 440 c0 347 -3 438 -12 435 -7
-3 -428 -143 -936 -312 l-923 -307 -332 112 c-913 307 -1512 509 -1514 509 -2
0 -3 -195 -3 -433z"/>
</g>
</svg>
