<?xml version="1.0" standalone="no"?>
<!DOCTYPE svg PUBLIC "-//W3C//DTD SVG 20010904//EN"
 "http://www.w3.org/TR/2001/REC-SVG-20010904/DTD/svg10.dtd">
<svg version="1.0" xmlns="http://www.w3.org/2000/svg"
 width="820.000000pt" height="593.000000pt" viewBox="0 0 820.000000 593.000000"
 preserveAspectRatio="xMidYMid meet">

<g transform="translate(0.000000,593.000000) scale(0.100000,-0.100000)"
fill="#000000" stroke="none">
<path d="M3865 5490 c-591 -121 -1008 -651 -982 -1245 9 -187 44 -328 122
-486 209 -425 631 -689 1100 -689 585 0 1086 415 1202 996 24 121 24 338 -1
454 -106 507 -492 888 -990 975 -122 21 -335 19 -451 -5z"/>
<path d="M1590 5051 c-553 -120 -877 -697 -692 -1231 89 -256 307 -478 558
-569 136 -49 230 -64 368 -58 138 6 238 29 350 81 593 274 742 1039 292 1505
-123 127 -253 206 -422 257 -121 36 -327 43 -454 15z"/>
<path d="M6240 5055 c-314 -63 -576 -282 -695 -580 -93 -235 -84 -516 25 -744
55 -115 113 -193 213 -287 131 -123 277 -199 455 -236 133 -28 308 -21 436 16
263 78 474 253 591 491 75 151 90 223 90 415 0 142 -3 176 -23 244 -101 349
-373 606 -716 677 -107 22 -278 24 -376 4z"/>
<path d="M818 3272 c-117 -94 -270 -262 -359 -394 -188 -281 -297 -595 -329
-949 -47 -502 107 -780 500 -904 187 -58 441 -85 812 -85 l239 0 -8 63 c-13
104 -7 421 12 562 49 374 148 694 311 1005 63 119 195 321 278 424 31 38 54
71 52 73 -2 3 -23 -5 -46 -17 -73 -37 -217 -79 -332 -96 -347 -51 -705 63
-975 310 -39 36 -74 66 -76 66 -3 0 -39 -26 -79 -58z"/>
<path d="M7250 3279 c-30 -28 -86 -75 -125 -104 -328 -247 -784 -302 -1159
-140 -44 19 -82 33 -84 31 -2 -2 26 -40 61 -83 290 -360 498 -850 572 -1349
26 -177 37 -419 26 -560 -6 -70 -7 -132 -4 -137 9 -15 684 -1 818 17 259 34
406 91 528 205 158 146 224 392 198 738 -37 479 -213 892 -520 1215 -85 89
-232 218 -249 218 -4 0 -32 -23 -62 -51z"/>
<path d="M2869 3195 c-442 -346 -757 -872 -873 -1455 -86 -431 -71 -799 43
-1035 79 -165 190 -277 361 -364 194 -100 419 -151 795 -183 218 -18 1894 -18
2060 0 625 69 903 287 991 778 21 119 24 415 5 569 -62 507 -247 956 -548
1330 -93 116 -268 288 -374 368 l-74 56 -65 -63 c-227 -220 -494 -362 -796
-423 -137 -28 -463 -25 -601 5 -283 61 -545 199 -749 395 l-92 87 -83 -65z"/>
</g>
</svg>
