<?xml version="1.0" standalone="no"?>
<!DOCTYPE svg PUBLIC "-//W3C//DTD SVG 20010904//EN"
 "http://www.w3.org/TR/2001/REC-SVG-20010904/DTD/svg10.dtd">
<svg version="1.0" xmlns="http://www.w3.org/2000/svg"
 width="538.000000pt" height="477.000000pt" viewBox="0 0 538.000000 477.000000"
 preserveAspectRatio="xMidYMid meet">

<g transform="translate(0.000000,477.000000) scale(0.100000,-0.100000)"
fill="#000000" stroke="none">
<path d="M2204 4609 c-65 -19 -127 -71 -159 -133 l-30 -60 -3 -248 -4 -248
-823 0 c-799 0 -826 -1 -878 -20 -57 -21 -103 -63 -133 -120 -18 -33 -19 -70
-22 -527 l-3 -493 1048 0 1048 0 0 69 c1 79 15 113 61 141 30 19 51 20 404 20
353 0 374 -1 404 -20 45 -27 59 -59 60 -139 l1 -71 1048 0 1048 0 -3 493 -3
492 -25 45 c-29 52 -95 105 -148 120 -24 6 -324 10 -859 10 l-821 0 -4 248 -3
247 -28 58 c-32 64 -72 99 -147 128 -47 18 -79 19 -523 18 -259 0 -486 -5
-503 -10z m986 -454 l0 -235 -470 0 -470 0 0 235 0 235 470 0 470 0 0 -235z"/>
<path d="M2480 2525 l0 -235 230 0 230 0 0 235 0 235 -230 0 -230 0 0 -235z"/>
<path d="M152 1453 l3 -1078 22 -42 c29 -54 86 -100 147 -118 75 -23 4697 -23
4772 0 61 18 118 64 147 118 l22 42 3 1078 2 1077 -1043 0 -1044 0 -6 -122
c-4 -66 -7 -152 -7 -191 0 -80 -18 -119 -66 -142 -48 -22 -740 -22 -788 0 -39
19 -65 60 -66 106 0 19 -3 105 -7 192 l-5 157 -1044 0 -1044 0 2 -1077z"/>
</g>
</svg>
